<svg width="20" height="22" fill="none" xmlns="http://www.w3.org/2000/svg"><path d="M13.593 2.027C12.68 1.042 11.406.5 10 .5c-1.413 0-2.692.54-3.6 1.518-.918.99-1.365 2.334-1.26 3.786C5.348 8.67 7.53 11 10 11c2.472 0 4.648-2.33 4.86-5.195.106-1.439-.344-2.78-1.267-3.778ZM18.25 21.5H1.75a1.454 1.454 0 0 1-1.134-.522 1.655 1.655 0 0 1-.337-1.364c.396-2.195 1.63-4.039 3.571-5.333C5.574 13.132 7.758 12.5 10 12.5c2.242 0 4.426.633 6.15 1.781 1.94 1.294 3.176 3.138 3.571 5.332.091.503-.032 1-.336 1.365a1.453 1.453 0 0 1-1.135.522Z" fill="#121"/></svg>