<svg width="16" height="16" fill="none" xmlns="http://www.w3.org/2000/svg"><mask id="a" fill="#fff"><path d="M13.5 5.5H10V2A1.5 1.5 0 0 0 8.5.5h-6A1.5 1.5 0 0 0 1 2v13a.5.5 0 0 0 .5.5h3.25a.25.25 0 0 0 .25-.25v-2.236c0-.269.207-.5.476-.513A.502.502 0 0 1 6 13v2.25a.25.25 0 0 0 .25.25h8.25a.5.5 0 0 0 .5-.5V7a1.5 1.5 0 0 0-1.5-1.5ZM3.065 13.496a.5.5 0 1 1-.13-.99.5.5 0 0 1 .13.99Zm0-2.5a.5.5 0 1 1-.13-.99.5.5 0 0 1 .13.99Zm0-2.5a.5.5 0 1 1-.13-.992.5.5 0 0 1 .13.992Zm0-2.5a.5.5 0 1 1-.13-.992.5.5 0 0 1 .13.992Zm0-2.5a.5.5 0 1 1-.13-.992.5.5 0 0 1 .13.992Zm2.5 7.5a.5.5 0 1 1-.13-.99.5.5 0 0 1 .13.99Zm0-2.5a.5.5 0 1 1-.13-.992.5.5 0 0 1 .13.992Zm0-2.5a.5.5 0 1 1-.13-.992.5.5 0 0 1 .13.992Zm0-2.5a.5.5 0 1 1-.13-.992.5.5 0 0 1 .13.992Zm2.5 10a.5.5 0 1 1-.13-.99.5.5 0 0 1 .13.99Zm0-2.5a.5.5 0 1 1-.13-.99.5.5 0 0 1 .13.99Zm0-2.5a.5.5 0 1 1-.13-.992.5.5 0 0 1 .13.992Zm0-2.5a.5.5 0 1 1-.13-.992.5.5 0 0 1 .13.992Zm0-2.5a.5.5 0 1 1-.13-.992.5.5 0 0 1 .13.992Zm5.81 11.004H10v-8h3.5a.5.5 0 0 1 .5.5v7.375a.125.125 0 0 1-.125.125Z"/></mask><path d="M13.5 5.5H10V2A1.5 1.5 0 0 0 8.5.5h-6A1.5 1.5 0 0 0 1 2v13a.5.5 0 0 0 .5.5h3.25a.25.25 0 0 0 .25-.25v-2.236c0-.269.207-.5.476-.513A.502.502 0 0 1 6 13v2.25a.25.25 0 0 0 .25.25h8.25a.5.5 0 0 0 .5-.5V7a1.5 1.5 0 0 0-1.5-1.5ZM3.065 13.496a.5.5 0 1 1-.13-.99.5.5 0 0 1 .13.99Zm0-2.5a.5.5 0 1 1-.13-.99.5.5 0 0 1 .13.99Zm0-2.5a.5.5 0 1 1-.13-.992.5.5 0 0 1 .13.992Zm0-2.5a.5.5 0 1 1-.13-.992.5.5 0 0 1 .13.992Zm0-2.5a.5.5 0 1 1-.13-.992.5.5 0 0 1 .13.992Zm2.5 7.5a.5.5 0 1 1-.13-.99.5.5 0 0 1 .13.99Zm0-2.5a.5.5 0 1 1-.13-.992.5.5 0 0 1 .13.992Zm0-2.5a.5.5 0 1 1-.13-.992.5.5 0 0 1 .13.992Zm0-2.5a.5.5 0 1 1-.13-.992.5.5 0 0 1 .13.992Zm2.5 10a.5.5 0 1 1-.13-.99.5.5 0 0 1 .13.99Zm0-2.5a.5.5 0 1 1-.13-.99.5.5 0 0 1 .13.99Zm0-2.5a.5.5 0 1 1-.13-.992.5.5 0 0 1 .13.992Zm0-2.5a.5.5 0 1 1-.13-.992.5.5 0 0 1 .13.992Zm0-2.5a.5.5 0 1 1-.13-.992.5.5 0 0 1 .13.992Zm5.81 11.004H10v-8h3.5a.5.5 0 0 1 .5.5v7.375a.125.125 0 0 1-.125.125Z" fill="#000" stroke="#121" stroke-width=".094" mask="url(#a)"/><path d="M12.5 12.5a.5.5 0 1 0 0 1 .5.5 0 0 0 0-1Zm0-2.5a.5.5 0 1 0 0 1 .5.5 0 0 0 0-1Zm0-2.5a.5.5 0 1 0 0 1 .5.5 0 0 0 0-1Zm-2 5a.5.5 0 1 0 0 1 .5.5 0 0 0 0-1Zm0-2.5a.5.5 0 1 0 0 1 .5.5 0 0 0 0-1Zm0-2.5a.5.5 0 1 0 0 1 .5.5 0 0 0 0-1Z" fill="#000"/></svg>