<svg width="24" height="24" fill="none" xmlns="http://www.w3.org/2000/svg"><path d="M21 6.857a2.571 2.571 0 0 0-2.571-2.571h-.643V3.66a.655.655 0 0 0-.612-.66.643.643 0 0 0-.674.642v.643h-9V3.66A.655.655 0 0 0 6.888 3a.643.643 0 0 0-.674.642v.643h-.643A2.571 2.571 0 0 0 3 6.857v.482a.16.16 0 0 0 .16.161h17.68a.16.16 0 0 0 .16-.16v-.483ZM3 18.43A2.571 2.571 0 0 0 5.571 21H18.43A2.57 2.57 0 0 0 21 18.429V8.906a.12.12 0 0 0-.12-.12H3.12a.12.12 0 0 0-.12.12v9.523Zm13.821-8.358a.965.965 0 1 1 0 1.93.965.965 0 0 1 0-1.93Zm0 3.215a.965.965 0 1 1 0 1.93.965.965 0 0 1 0-1.93Zm-3.214-3.215a.965.965 0 1 1 0 1.93.965.965 0 0 1 0-1.93Zm0 3.215a.965.965 0 1 1 0 1.93.965.965 0 0 1 0-1.93Zm0 3.214a.965.965 0 1 1 0 1.93.965.965 0 0 1 0-1.93Zm-3.214-3.214a.965.965 0 1 1 0 1.93.965.965 0 0 1 0-1.93Zm0 3.214a.965.965 0 1 1 0 1.93.965.965 0 0 1 0-1.93Zm-3.214-3.214a.965.965 0 1 1 0 1.93.965.965 0 0 1 0-1.93Zm0 3.214a.965.965 0 1 1 0 1.93.965.965 0 0 1 0-1.93Z" fill="#121"/></svg>