<svg width="22" height="18" fill="none" xmlns="http://www.w3.org/2000/svg"><path d="M19.25 7.814a3.724 3.724 0 0 0-1.5-.314H4.25A3.754 3.754 0 0 0 .5 11.25v5.25a.75.75 0 1 0 1.5 0v-.375a.38.38 0 0 1 .375-.375h17.25a.38.38 0 0 1 .375.375v.375a.75.75 0 1 0 1.5 0v-5.25a3.754 3.754 0 0 0-2.25-3.436ZM16.625.75H5.375A2.625 2.625 0 0 0 2.75 3.375V6.75a.187.187 0 0 0 .24.18c.409-.12.833-.18 1.26-.18h.198a.188.188 0 0 0 .188-.166A1.5 1.5 0 0 1 6.125 5.25H8.75a1.5 1.5 0 0 1 1.49 1.334.188.188 0 0 0 .188.166h1.147a.187.187 0 0 0 .187-.166A1.5 1.5 0 0 1 13.25 5.25h2.625a1.5 1.5 0 0 1 1.49 1.334.188.188 0 0 0 .188.166h.197c.427 0 .851.06 1.26.18a.188.188 0 0 0 .24-.18V3.375A2.625 2.625 0 0 0 16.625.75Z" fill="#fff"/></svg>